<svg width="400" height="200" viewBox="0 0 400 200" fill="none" xmlns="http://www.w3.org/2000/svg">
<path d="M57.5717 29H86.1433V114.715C86.1433 130.495 98.9353 143.287 114.715 143.287V171.858C83.1556 171.858 57.5717 146.274 57.5717 114.715V93.9775C57.5717 78.1978 44.7797 65.4058 29 65.4058V36.8342C39.4083 36.8342 49.1666 39.6169 57.5717 44.4789V29Z" fill="#2E2052"/>
<path d="M143.287 29H171.858V36.6448C180.263 31.7827 190.022 29 200.43 29C231.989 29 257.573 54.5839 257.573 86.1433V171.858H229.002V86.1433C229.002 70.3636 216.21 57.5717 200.43 57.5717C184.65 57.5717 171.858 70.3636 171.858 86.1433V171.858H143.287V29Z" fill="#2E2052"/>
<path fill-rule="evenodd" clip-rule="evenodd" d="M314.717 29H286.145V114.715C286.145 89.3291 297.181 66.5207 314.717 50.8257V29Z" fill="#2D6BFA"/>
<path d="M371.86 29C324.521 29 286.145 67.3759 286.145 114.715V171.858H314.717V114.715C314.717 83.1556 340.301 57.5717 371.86 57.5717V29Z" fill="#2E2052"/>
</svg>
